<svg id="Calque_1" data-name="Calque 1" xmlns="http://www.w3.org/2000/svg" viewBox="0 0 150.87 147.23"><defs><style>.cls-1{fill:#f7da61;stroke:#f7da61;stroke-miterlimit:10;stroke-width:2px;}</style></defs><title>CheeseBackground</title><path class="cls-1" d="M214.7,421.3,355,386.87s17,19,3.24,95.42L309.46,493s-1.26-8.11-8.48-7.23c0,0-7.49.6-7.49,10.31l-77.63,13.34V492s5.9-.24,6-5.63c0,0,.46-5.31-5.86-5.1l-.63-26.12s13.84,1.12,14.61-11.05c0,0,1.15-13.46-15-8.75Z" transform="translate(-213.69 -363.33)"/><path class="cls-1" d="M214.7,421.3c0-2.61,63.68-48.11,63.68-48.11s14.45-13.41,38.18-7.22c0,0,28.07,5.42,38.39,20.9C355,386.87,214.73,424.06,214.7,421.3Z" transform="translate(-213.69 -363.33)"/></svg>