<svg id="Calque_1" data-name="Calque 1" xmlns="http://www.w3.org/2000/svg" viewBox="0 0 150.9 147.22"><defs><style>.cls-1{fill:#e7b469;}</style></defs><title>CheeseLign</title><polygon class="cls-1" points="25.96 82 26.45 82.16 26.45 82.1 25.99 81.91 25.96 82"/><path class="cls-1" d="M363.73,369.14c-10.46-15.59-37.82-21-38.92-21.24-23.25-6.07-38,6.51-39.06,7.41-.94.67-16.47,11.78-31.81,23.05-25.19,18.51-30.7,23.33-31.9,25l-.35.08v.79h0l.31,15.35,1.25-.36c5-1.47,8.79-1.26,11.1.63,3,2.44,2.66,7,2.65,7.09a9.85,9.85,0,0,1-3.24,7.14c-3.95,3.44-10.23,3-10.29,3l-1.1-.09.68,28.24,1,0a5,5,0,0,1,3.84,1.17,4.14,4.14,0,0,1,1,2.9c-.11,4.38-4.88,4.65-5.08,4.66l-1,0v19.53l79.63-13.68v-.85c0-8.61,6.31-9.28,6.61-9.31,6.15-.76,7.32,6.1,7.37,6.39l.16,1.05,50.42-11,.12-.66C380.68,390.3,364.82,370.39,363.73,369.14ZM287,356.9l.1-.08c.11-.1,9.45-8.57,25.24-8.57a47.44,47.44,0,0,1,12.07,1.6c.27,0,26.33,5.22,36.92,19.29L225.71,402.43C234.06,395.18,265.35,372.34,287,356.9Zm78.36,107.45-47.09,10.31c-.85-3.2-3.56-7.73-9.33-7-.08,0-7.95.76-8.39,10.46l-75.65,13v-15.3c2.45-.42,5.93-2.11,6-6.44a6.14,6.14,0,0,0-1.52-4.38,6.27,6.27,0,0,0-4.36-1.8l-.58-24.1c2.18,0,7.09-.41,10.64-3.49a11.75,11.75,0,0,0,3.94-8.51c0-.23.44-5.66-3.37-8.78-2.64-2.17-6.57-2.62-11.68-1.35l-.24-11.66c3.76-.27,17.28-3,70.35-16.55,31.78-8.12,63.66-16.55,68.48-17.83C364.89,374.23,377.5,396.09,365.32,464.35Z" transform="translate(-221.69 -346.25)"/><path class="cls-1" d="M286.43,402.32c-6.6,0-12,5.08-12,11.33s5.37,11.33,12,11.33,12-5.08,12-11.33S293,402.32,286.43,402.32Zm0,20.66c-5.5,0-10-4.18-10-9.33s4.47-9.33,10-9.33,10,4.19,10,9.33S291.92,423,286.43,423Z" transform="translate(-221.69 -346.25)"/><path class="cls-1" d="M350.76,442.15a10.06,10.06,0,1,0,9.93,10.06A10,10,0,0,0,350.76,442.15Zm0,18.12a8.06,8.06,0,1,1,7.93-8.06A8,8,0,0,1,350.76,460.27Z" transform="translate(-221.69 -346.25)"/><path class="cls-1" d="M317.71,426.73c-4.13,0-7.5,2.6-7.5,5.79s3.37,5.78,7.5,5.78,7.5-2.59,7.5-5.78S321.85,426.73,317.71,426.73Zm0,9.57c-3,0-5.5-1.73-5.5-3.78s2.52-3.79,5.5-3.79,5.5,1.74,5.5,3.79S320.7,436.3,317.71,436.3Z" transform="translate(-221.69 -346.25)"/><path class="cls-1" d="M352.45,397.86a4.22,4.22,0,1,0-4.43-4.22A4.33,4.33,0,0,0,352.45,397.86Zm0-6.43a2.22,2.22,0,1,1-2.43,2.21A2.33,2.33,0,0,1,352.45,391.43Z" transform="translate(-221.69 -346.25)"/><path class="cls-1" d="M263.75,451.43c-4.29,0-7.79,2.94-7.79,6.55s3.5,6.55,7.79,6.55,7.78-2.94,7.78-6.55S268,451.43,263.75,451.43Zm0,11.33c-3.32,0-6-2.14-6-4.78s2.7-4.79,6-4.79,6,2.15,6,4.79S267.07,462.76,263.75,462.76Z" transform="translate(-221.69 -346.25)"/></svg>