<svg id="Calque_1" data-name="Calque 1" xmlns="http://www.w3.org/2000/svg" viewBox="0 0 198.35 236.03"><defs><style>.cls-1,.cls-2{fill:#d4d6ec;stroke:#d4d6ec;}.cls-1{stroke-miterlimit:10;stroke-width:2px;}.cls-2{stroke-linejoin:round;stroke-width:2.27px;}</style></defs><title>ChickenBackground</title><path class="cls-1" d="M424.05,368s-8.58-18.32-4-20.14c4.1-1.62,12.82,9.15,12.82,9.15s-2.34-9.05,0-9.76C437.21,346,443,362.24,443,362.24s3.63-7.19,5.8-6.71c4.1.91,4.58,16.17,4.58,16.17s4.45-6.28,6.4-5.49c3.7,1.49,1.53,15.87,1.53,15.87l14.65,22.28s-8.3-1.79-10.07,0c-4.66,4.68-11.83,16.7-10.38,22,2.91,10.56,11.07,28.48,10.74,38.76-.15,4.36-7.26,11.5-7.33,15.86-.27,17.49,3.58,47.54-48.27,47.75-10.32,0-26.81,12.65-40.72,4.85-10.66-6-34.63,11-47.39-8.29-8.54-12.94-27.67-.68-24.5-54.38.51-8.52-13.29-5.65-8.07-32.65,2.26-11.69-7.69-15.58-6.41-22.8.45-2.51,6.57-3,6.41-7.94,0,0-.27-8.63-7.32-18.31-1.31-1.8-2.55-7.25-1.42-10.08.87-2.19,1.85-4.16,6.61-6.09,2.34-1,4.83-.06,6.71-1.53,2.74-2.13-2.91-16.09,5.63-21.28a11.59,11.59,0,0,1,11.29.61s1.22-7.62,6.1-7.32c0,0,27.65-.53,36.46,52,1.38,8.24,24.7,6.31,31.9,16.95,3.57,5.27,10.48-15.47,18.31-18.7C411.54,390.74,412.3,374,424.05,368Z" transform="translate(-279.75 -342.48)"/><path class="cls-2" d="M352.63,534.27s-7.24,21.21.24,25.49l14.74.22a1.74,1.74,0,0,1,1.31.63h0a1.73,1.73,0,0,1-1.35,2.84,76.22,76.22,0,0,0-11.74.74l9.09,6.48a1.74,1.74,0,0,1,.18,2.69l-.1.08a1.73,1.73,0,0,1-2.11.2c-3.06-2-11.53-7.15-14.73-6.94-4.55.3-6.1,2.21-13,9.14a1.73,1.73,0,0,1-1.77.43l-.57-.19a1.73,1.73,0,0,1-.85-2.68c3-4,9.65-13.23,9.94-16.29.42-4.53,2.86-14.54-.81-22A102.07,102.07,0,0,1,352.63,534.27Z" transform="translate(-279.75 -342.48)"/><path class="cls-2" d="M418.29,528.43c2.54.61-4.31,7-5.57,9-3.18,5.24-14.36,15.91-9.14,22.77L416.44,566a1.75,1.75,0,0,1,1,1.43v.07a1.77,1.77,0,0,1-2.5,1.8,58.19,58.19,0,0,0-10.4-3.78l4.67,9.35a1.77,1.77,0,0,1-1.46,2.56h0a1.78,1.78,0,0,1-1.64-.86c-1.63-2.75-6.54-10.66-9.61-11.72-4.3-1.49-6.77-.58-15.78,3.12a1.79,1.79,0,0,1-1.84-.31l-.09-.08a1.76,1.76,0,0,1,.27-2.85c4.35-2.56,14-8.42,15.45-11.12,2.15-4,9.67-14.85,7.93-22.86C402.49,530.7,410.57,526.55,418.29,528.43Z" transform="translate(-279.75 -342.48)"/></svg>