<svg id="Calque_1" data-name="Calque 1" xmlns="http://www.w3.org/2000/svg" viewBox="0 0 198.35 236.03"><defs><style>.cls-1{fill:#5a287f;}</style></defs><title>ChickenLign</title><path class="cls-1" d="M490.3,413.85c.57-4,1.78-15-2.2-16.57-1.75-.71-4.16,1.57-5.93,3.67-.35-4.84-1.51-13.58-5.21-14.4-2-.46-4.35,2.72-5.84,5.28-2-5.22-6.35-14.77-10.54-13.5-2,.61-2,3.95-1.48,7.18-3.11-3.33-8.13-7.84-11.41-6.54a2.91,2.91,0,0,0-1.63,1.7c-1.68,4.23,3.12,15.52,4.67,18.94-6.21,3.57-9.26,9.94-12,15.59-2.16,4.52-4,8.43-7,9.63-4,1.67-7.62,7.29-10.79,12.25-2,3.22-4.6,7.22-5.82,7.23h0c-.18,0-.37-.22-.49-.41-3.9-5.76-12-8-19.21-9.92-6.16-1.67-12-3.25-12.54-6.64-8.85-52.79-36.28-52.86-37.38-52.85-4.35-.28-6.19,4.4-6.84,6.8a12.51,12.51,0,0,0-11.13.06c-6,3.62-5.62,10.88-5.37,16.18.1,2.09.23,4.71-.36,5.16a5.32,5.32,0,0,1-3.07.78,10.34,10.34,0,0,0-3.41.61c-5,2-6.18,4.21-7.16,6.65-1.27,3.18,0,9,1.55,11,6.76,9.29,7.13,17.67,7.13,17.76.08,2.36-1.63,3.44-3.45,4.58-1.38.88-2.69,1.7-3,3.14-.63,3.54,1.11,6.3,3,9.21,2.29,3.64,4.66,7.4,3.47,13.58-3.52,18.17,1.46,23.32,5.1,27.08,1.8,1.85,3.1,3.2,2.95,5.71-2.31,39.14,7.41,44,16,48.32,3.3,1.65,6.41,3.22,8.68,6.66,5,7.53,11.69,9.76,18.54,10,2.76,5.83,1.7,13.33,1,18.32-.16,1.13-.3,2.1-.37,2.93-.18,1.9-3.91,7.92-9.72,15.71a2.86,2.86,0,0,0,1.4,4.44l.57.18a2.79,2.79,0,0,0,.9.15,2.84,2.84,0,0,0,2-.86l1.4-1.41c5.54-5.63,7-7.14,10.82-7.39,1.92-.12,7.31,2.46,14.05,6.76a2.86,2.86,0,0,0,3.49-.32l.09-.09a2.87,2.87,0,0,0-.28-4.43l-6.75-4.81c2.85-.28,5.84-.36,8.18-.36h.57a2.87,2.87,0,0,0,2.21-4.7,2.89,2.89,0,0,0-2.17-1l-14.43-.21c-5.11-3.44-1.39-18.43.5-24a1.31,1.31,0,0,0,.06-.27c6.16-1,12-2,15.66,0a21.31,21.31,0,0,0,10.66,2.69c6.22,0,12.48-2.21,18.25-4.26l3.18-1.11c.83,6.28-4,14.48-6.63,19-.53.9-1,1.68-1.32,2.3-.9,1.69-6.66,5.78-15,10.68a2.9,2.9,0,0,0-.44,4.69l.09.08a2.9,2.9,0,0,0,3,.49c8.86-3.63,11.1-4.44,15-3.09,1.79.62,5.33,5,9,11.22a2.87,2.87,0,0,0,2.49,1.42h.2a2.88,2.88,0,0,0,2.32-1.45,2.92,2.92,0,0,0,.08-2.74l-3.54-7.08a64.81,64.81,0,0,1,7.78,3,2.85,2.85,0,0,0,2.91-.27,3,3,0,0,0-.52-5.08l-12.59-5.59c-3.2-4.66,2.27-11.78,6.29-17,1.26-1.64,2.35-3.06,3.09-4.27a26,26,0,0,1,2.08-2.55c2.44-2.79,4-4.74,4.18-6.21,39.94-3.41,39.93-28,39.92-44.58,0-1.3,0-2.56,0-3.75,0-1.92,1.8-4.75,3.52-7.48,1.91-3.05,3.72-5.93,3.8-8.37.24-7.24-3.57-18-6.92-27.46-1.52-4.28-2.95-8.31-3.85-11.6-1.26-4.6,5.32-16.17,10.12-21,.83-.83,5.4-.53,9.15.27l2.39.52Zm-.75,2.49,12.18,18.53-25.09-5.4C484.62,426.51,488.2,419.75,489.55,416.34ZM376.8,577.24c-1.24,8.26-.06,13.47,3.48,15.51a1.33,1.33,0,0,0,.55.15l14.74.21a.61.61,0,0,1,0,1.21h0a77.42,77.42,0,0,0-11.93.75,1.16,1.16,0,0,0-.92.86,1.14,1.14,0,0,0,.45,1.18l9.09,6.48a.59.59,0,0,1,.25.45.6.6,0,0,1-.19.49l-.09.08a.6.6,0,0,1-.74.07c-4.31-2.75-12.05-7.36-15.41-7.11-4.65.3-6.57,2.26-12.28,8.06l-1.4,1.41a.62.62,0,0,1-.62.15l-.56-.18a.62.62,0,0,1-.39-.4.6.6,0,0,1,.09-.54c4.48-6,9.87-13.77,10.16-16.85.07-.78.21-1.72.36-2.82.7-4.93,1.73-12.18-.65-18.38,2-.21,5.52-.56,8.28-.62A74,74,0,0,0,376.8,577.24ZM442,566a26.94,26.94,0,0,0-2.31,2.86c-.67,1.11-1.73,2.48-3,4.07-4.52,5.88-10.72,13.94-6.13,20a1,1,0,0,0,.45.35L444,599a.66.66,0,0,1,.38.58.64.64,0,0,1-.9.65,59.89,59.89,0,0,0-10.61-3.85,1.14,1.14,0,0,0-1.15.39,1.12,1.12,0,0,0-.13,1.21l4.67,9.36a.63.63,0,0,1,0,.6.71.71,0,0,1-.51.32.64.64,0,0,1-.59-.31c-2.42-4.08-7-11.09-10.22-12.21a12,12,0,0,0-4-.75c-3.1,0-6.39,1.36-12.55,3.89a.65.65,0,0,1-.67-.11l-.09-.08a.65.65,0,0,1-.22-.54.67.67,0,0,1,.31-.49c6.44-3.77,14.42-8.84,15.88-11.56.32-.6.76-1.35,1.28-2.22,3-5.09,7.91-13.46,6.92-20.51a30.93,30.93,0,0,1,3.58-1.27,16.51,16.51,0,0,1,3.29-.39q3.66,0,7-.23A30.7,30.7,0,0,1,442,566Zm4-4.49h0l0-.09h0Zm40.37-91.21c3.3,9.32,7,19.87,6.81,26.73-.06,1.9-1.81,4.68-3.5,7.37-1.95,3.11-3.79,6-3.82,8.52,0,1.2,0,2.47,0,3.78,0,17,0,39.8-39.14,42.68a.61.61,0,0,0-.17-.07h0c-6.11-1.49-12.31.54-15.08,1.68-1.88.57-3.83,1.25-5.83,2-8.71,3.08-18.59,6.58-27.26,1.7a13.74,13.74,0,0,0-6.78-1.47,63.35,63.35,0,0,0-10.25,1.21c-1.88.32-3.81.64-5.75.9s-3.62.31-4.87.44c-7.26.3-14.3-1.33-19.4-9-2.57-3.88-6.07-5.64-9.45-7.34-8.22-4.12-16.7-8.4-15-43.82a137.37,137.37,0,0,0,13.43,13.9c8.34,7.45,21,16.6,34,17.9,1.06.1,2.1.16,3.14.16A28.83,28.83,0,0,0,396.75,530l.13-.14a28.72,28.72,0,0,0,4.89-11.35C403,512.3,402.38,503,393,494a1,1,0,0,0-1.38,1.44c16.36,15.66,4.83,31.72,3.79,33.1a26.82,26.82,0,0,1-20.91,6.81c-22.75-2.28-45.22-30-47.47-32.82,0-3.12-1.68-4.92-3.5-6.81-3.52-3.63-7.9-8.15-4.58-25.3,1.35-7-1.47-11.43-3.74-15-1.7-2.69-3.16-5-2.67-7.8.1-.57,1.05-1.17,2.05-1.8,1.9-1.19,4.49-2.83,4.38-6.34,0-.36-.36-9-7.52-18.87-1.17-1.61-2.26-6.72-1.3-9.12.72-1.8,1.46-3.66,6.06-5.54a8.76,8.76,0,0,1,2.78-.47,6.88,6.88,0,0,0,4.17-1.19c1.4-1.09,1.29-3.5,1.13-6.84-.24-5.07-.54-11.37,4.37-14.35a10.51,10.51,0,0,1,10.27.58l1.28.81.24-1.5c0-.06,1.17-6.75,5.14-6.48.28,0,26.88.09,35.44,51.18.78,4.65,6.91,6.32,14,8.24,6.69,1.82,14.24,3.88,17.83,8.78-1,4.23-7.06,35.5,17.77,50.86a1,1,0,0,0,.53.15,1,1,0,0,0,.52-1.85c-22.2-13.73-18.41-41-17.1-47.65a2.41,2.41,0,0,0,.71.11c2.19,0,4.17-3,7.48-8.15,2.85-4.48,6.41-10.06,9.86-11.48,3.64-1.5,5.66-5.72,8-10.61,2.58-5.39,5.5-11.46,11.18-14.73l4.79,6.3a25.74,25.74,0,0,0-5.2,5.68c-3.47,5.27-3.93,10.93-1.33,16.38.35,1.05,4,11.09,16.86,14.43.13,2.08,1,7.47,6.15,9.31a15.1,15.1,0,0,0,6.17,1.37,11.64,11.64,0,0,0,3.38-.48,9.49,9.49,0,0,0-.08,4.26C483.42,462,484.86,466,486.38,470.32Zm6.74-34.67a49.56,49.56,0,0,0-9.9,16.27c-4.4,2.1-9.32-.27-9.37-.3l-.12-.05c-5-1.73-4.89-7.94-4.88-8.2l0-.82-.8-.18c-12.77-3-16.14-13.23-16.18-13.34l-.05-.13c-2.33-4.85-1.95-9.71,1.14-14.43a23.22,23.22,0,0,1,5.53-5.81l.86-.6-6.48-8.54c-1.87-4-6.28-14.8-5-18.11a.87.87,0,0,1,.51-.58c2.35-.94,8.24,4.62,11.67,8.85l2.89,3.58-1.15-4.46c-1-3.9-1.33-8.06-.67-8.55,2-.63,6.2,6.91,8.83,14.33l.78,2.2,1.06-2.09c1.63-3.24,3.93-6.22,4.69-6.19,2.06.46,3.57,8.27,3.79,15.23l.09,3,1.73-2.43c1.95-2.75,4.48-5.27,5.22-5.14,1.82.73,1.89,8.22.91,14.75-.19.73-3.43,12.58-16.08,14.7l-5.15.87,26.72,5.74A2.81,2.81,0,0,0,493.12,435.65Z" transform="translate(-307.73 -374.48)"/><path class="cls-1" d="M473.35,417.36c0-3.05-2-5.53-4.56-5.53s-4.57,2.48-4.57,5.53,2,5.53,4.57,5.53S473.35,420.41,473.35,417.36Zm-7.13,0c0-1.91,1.18-3.53,2.57-3.53s2.56,1.62,2.56,3.53-1.17,3.53-2.56,3.53S466.22,419.27,466.22,417.36Z" transform="translate(-307.73 -374.48)"/><path class="cls-1" d="M493.55,430.76a1,1,0,0,0,.67.25,1,1,0,0,0,.75-.33,1,1,0,0,0-.08-1.42l-5.37-4.79a1,1,0,0,0-1.33,1.49Z" transform="translate(-307.73 -374.48)"/></svg>