<svg id="Calque_1" data-name="Calque 1" xmlns="http://www.w3.org/2000/svg" viewBox="0 0 98.98 209.65"><defs><style>.cls-1{fill:#313280;}</style></defs><title>MilkLign</title><path class="cls-1" d="M363.51,440.47c-.19-17.85-.59-55-.73-128.43,0-.39,0-1.2-20.67-39.72h0l.09-10.67-55.46,7.88v.87s0,6.93,0,9.84c-.52,1.2-5.23,7.78-9.39,13.61-9.75,13.65-11.86,16.83-11.87,17.9v.13l-.84,147.3a1.83,1.83,0,0,0,.39.41h0c1.6,1.25,7.49,2.88,27.91,7.88,5,1.22,10.16,2.49,15.23,3.77a2.92,2.92,0,0,0,.68.06c3.76,0,18.43-3.24,44.76-9.36l8.67-2C363.72,459.6,363.72,459.6,363.51,440.47ZM288.73,271.26,340.17,264l-.06,7.63-51.38,7.85C288.74,277,288.73,273,288.73,271.26Zm18.6,197.35-40.69-10.67.83-145.45,20.32-29.88,20.37,37.8Zm54.19-10.56c-2.42.55-5.26,1.22-8.36,1.94-13.87,3.22-39,9.06-43.84,9.32l.84-149.15v-.25L289.5,281.58l51.11-7.81c9,16.7,19.43,36.42,20.17,38.41.14,73.37.54,110.47.73,128.31C361.64,452.19,361.69,456.83,361.52,458.05Z" transform="translate(-264.63 -261.64)"/><path class="cls-1" d="M332.07,278.64a9,9,0,0,0-7.93,2.1c-1.19,1.06-2.46,2.1-3.69,3.09-.93.77-1.87,1.53-2.79,2.31-2.18,1.88-2.85,3.45-2.86,6.75a13.7,13.7,0,0,0,2.27,7.44l.12.2a20,20,0,0,0,10,8.81,13.25,13.25,0,0,0,5.12,1.12c3.48,0,6.51-1.73,8.91-5.16l.14-.2a20.46,20.46,0,0,1,2.58-3.22,9.09,9.09,0,0,0,2.67-8.64C345.53,286.55,338.72,279.73,332.07,278.64ZM339.74,304l-.14.2c-3,4.27-6.79,5.37-11.62,3.34a17.88,17.88,0,0,1-9-7.93l-.12-.2c-1.13-2-2-3.64-2-6.47s.55-3.84,2.17-5.23c.9-.77,1.82-1.52,2.75-2.27L323,284.3c2.8,13.56,13,17.64,17.33,18.77C340.15,303.36,340,303.66,339.74,304Zm2.84-3.52a12.77,12.77,0,0,0-.88.93,22.06,22.06,0,0,1-7.17-3c-5.3-3.37-8.57-8.61-9.73-15.58l.68-.59a7,7,0,0,1,6.26-1.62c5.8.95,12,7.12,12.92,13A7.15,7.15,0,0,1,342.58,300.43Z" transform="translate(-264.63 -261.64)"/></svg>