<svg id="Calque_1" data-name="Calque 1" xmlns="http://www.w3.org/2000/svg" viewBox="0 0 182.68 142.73"><defs><style>.cls-1{fill:#c5ba9f;stroke:#c5ba9f;stroke-miterlimit:10;stroke-width:2px;}</style></defs><title>Paperbackground</title><path class="cls-1" d="M267.48,514.87q-35.22,0-70.42,0c-13.05,0-19.5-6.34-19.52-19.31-.06-32.57.39-65.15-.34-97.71-.18-8,5.12-11.47,8.54-16.67,5.39-8.2,14-6.33,21.8-6.35,40.49-.11,81,.35,121.47-.61,8.52-.2,11.82,5.56,17.25,8.78,4,2.38,6.91,6.9,9.83,10.82a11.11,11.11,0,0,1,1.68,6.31c.1,32.28.17,64.56,0,96.83-.06,11.59-6.47,17.84-18.12,17.91-24.06.15-48.12,0-72.18,0Z" transform="translate(-176.2 -373.2)"/></svg>