<svg id="Calque_1" data-name="Calque 1" xmlns="http://www.w3.org/2000/svg" viewBox="0 0 182.68 142.73"><defs><style>.cls-1{fill:#5e4f45;}</style></defs><title>PaperLign</title><path class="cls-1" d="M388.3,377.24c0-1.32-.19-4.64-1.88-6.9q-.65-.87-1.29-1.77c-2.57-3.53-5.23-7.18-8.83-9.31a34.25,34.25,0,0,1-4.32-3.21c-3.48-2.89-7.08-5.87-13.47-5.71-28.83.68-58.18.64-86.55.6-11.44,0-23.26,0-34.89,0-1.23,0-2.48,0-3.71-.08-6.92-.24-14.08-.49-18.93,6.89a43,43,0,0,1-2.9,3.78c-2.92,3.53-5.94,7.18-5.8,13.46.51,22.64.44,45.69.38,68,0,9.73-.06,19.8,0,29.71,0,13.45,6.93,20.29,20.52,20.31q24.76,0,49.55,0L297,493l21.05,0h21c10,0,20.16,0,30.18-.08,12.26-.07,19-6.78,19.11-18.9C388.48,441.58,388.4,408.42,388.3,377.24Zm-2,96.83c-.06,11-6,16.85-17.12,16.91-17,.11-34.37.09-51.12.07L298,491v0H276.14q-24.76,0-49.55,0c-12.61,0-18.5-5.84-18.52-18.32,0-9.9,0-20,0-29.7.06-22.3.13-45.36-.38-68-.12-5.53,2.53-8.74,5.34-12.13a45.38,45.38,0,0,0,3-4c4.23-6.44,10.53-6.23,17.19-6,1.25,0,2.52.08,3.78.08,11.63,0,23.45,0,34.88,0,28.39,0,57.75.08,86.61-.61,5.63-.12,8.8,2.49,12.15,5.26a36.56,36.56,0,0,0,4.57,3.39c3.25,1.92,5.78,5.4,8.23,8.77.44.6.87,1.2,1.31,1.78a10.09,10.09,0,0,1,1.48,5.72C386.4,408.42,386.48,441.57,386.31,474.07Z" transform="translate(-205.73 -350.33)"/><path class="cls-1" d="M249,475.32h57.61V427.64H249Zm2-45.68h53.61v43.68H251Z" transform="translate(-205.73 -350.33)"/><path class="cls-1" d="M369.83,364.28v-2H227.93l-.2,106.08c.12,2.24,0,8.56-2.2,10.89a2.42,2.42,0,0,1-1.76.84A3.56,3.56,0,0,1,221,479c-2.9-3-2.55-10.55-2.55-10.67l.47-105.09h-2l-.46,105c0,.35-.4,8.52,3.1,12.12a5.53,5.53,0,0,0,4.08,1.72h.18A4.37,4.37,0,0,0,227,480.6c3.16-3.42,2.75-12,2.73-12.29l.2-104Z" transform="translate(-205.73 -350.33)"/><rect class="cls-1" x="43.27" y="51.13" width="120.91" height="2"/><rect class="cls-1" x="43.29" y="60.03" width="120.91" height="2"/><rect class="cls-1" x="43.24" y="68.95" width="120.91" height="2"/><rect class="cls-1" x="106.99" y="77.87" width="57.19" height="2"/><rect class="cls-1" x="106.98" y="86.76" width="57.19" height="2"/><rect class="cls-1" x="106.98" y="95.64" width="57.19" height="2"/></svg>