<svg id="Calque_1" data-name="Calque 1" xmlns="http://www.w3.org/2000/svg" viewBox="0 0 37.8 225.19"><defs><style>.cls-1{fill:#585857;}.cls-2{fill:#fff;stroke:#222221;stroke-miterlimit:10;stroke-width:1.41px;}</style></defs><title>ArmLign</title><path class="cls-1" d="M285.52,436.6c-.07-2.45-1.33-5.66-2.67-9.05-1.27-3.23-2.58-6.57-2.58-8.75,0-7.63,0-30.29,0-30.29,0-1.51-.13-37.24-12.72-55.38l-.71-1L266,333c-.45.49-11,12.55-12.28,56,0,0,0,21.8,0,29.77,0,2.58-1.43,6-2.8,9.24-1.29,3.06-2.5,6-2.49,8.11.08,15.51,0,38.77,0,61.26s-.1,43.6,0,55.78c0,3.59,11.59,4.13,18.58,4.13h.13c7.06,0,18.9-.55,18.92-4.13C286.12,533.29,286.38,466.2,285.52,436.6Zm-29.86-17.07c0-.26.05-.52.05-.77,0-7.3,0-26.19,0-29.3l15.78,0-.26,30.14Zm17.83-30h4.78c0,4.45,0,22.62,0,29.29,0,.28,0,.57.05.87l-5.09,0Zm-6.8-54.06c10.36,16.29,11.45,46.23,11.57,52.07l-22.49-.05c.76-21.26,3.83-34.49,6.31-41.88A43.71,43.71,0,0,1,266.69,335.44Zm-16.3,217.7c-.09-12.18,0-33.35,0-55.77s.1-45.76,0-61.27c0-1.75,1.13-4.46,2.33-7.33a46.2,46.2,0,0,0,2.59-7.24l3,0c-1.1,3.09-3.1,9.11-3.1,11.78-.09,28.31-.24,108.9-.27,121.17C252.15,554.07,250.63,553.53,250.39,553.14Zm14.66,2.12c-3.25,0-5.94-.24-8.11-.49,0-11.28.18-92.9.27-121.43,0-2.36,2-8.48,3.22-11.78l11.42.07c1.43,3.35,3.87,9.56,3.91,12,.51,27.53.77,111.26.8,121.22A96.22,96.22,0,0,1,265.05,555.26Zm19-2.2c-.38.51-2.29,1.1-5.46,1.54,0-11-.29-93.69-.8-121-.05-2.74-2.4-8.75-3.73-11.93l4.66,0a56.83,56.83,0,0,0,2.3,6.6c1.21,3.08,2.47,6.28,2.53,8.38C284.38,466.19,284.12,533.12,284,553.06Z" transform="translate(-248.34 -332.09)"/><path class="cls-2" d="M274.35,455.36" transform="translate(-248.34 -332.09)"/></svg>