<svg id="Calque_1" data-name="Calque 1" xmlns="http://www.w3.org/2000/svg" viewBox="0 0 99.2 209.67"><defs><style>.cls-1{fill:#68a8de;}.cls-1,.cls-2,.cls-3{stroke:#fff;stroke-miterlimit:10;}.cls-1,.cls-3{stroke-width:2px;}.cls-2{stroke-width:2.25px;}.cls-3{fill:none;}</style></defs><title>Milk</title><path class="cls-1" d="M324.63,317.45,271.19,325s0,7.15,0,10c0,1.41-21.24,29.53-21.26,31.38-.39,34.53-1.19,116.86-1,146.8,0,1.54,22.59,6.56,43,11.72,2.8.71,37.77-7.67,53.65-11.32,1.3-.3,0,0-.28-146.91,0-1-20.71-39.53-20.69-39.48Z" transform="translate(-247.89 -316.29)"/><path class="cls-1" d="M299.26,347.54a19.92,19.92,0,0,0,2.26,7.16,19,19,0,0,0,9.53,8.37c5.28,2.21,9.57.95,12.83-3.69a23,23,0,0,1,2.84-3.58,8.07,8.07,0,0,0,2.38-7.74c-1-6.22-7.49-12.76-13.74-13.78a8,8,0,0,0-7.09,1.86c-2.1,1.88-4.36,3.58-6.5,5.42a7.19,7.19,0,0,0-2.51,6Z" transform="translate(-247.89 -316.29)"/><polygon class="cls-1" points="23.45 19.05 44.73 58.51 43.89 208.26 1.2 197.07 2.04 50.54 23.45 19.05"/><line class="cls-2" x1="76.67" y1="10.92" x2="23.45" y2="19.05"/><path class="cls-3" d="M325.88,357.14s-16.23-1.79-18.77-20.54" transform="translate(-247.89 -316.29)"/></svg>